<?xml version="1.0" encoding="UTF-8" standalone="no"?>
<svg
   xmlns:dc="http://purl.org/dc/elements/1.1/"
   xmlns:cc="http://creativecommons.org/ns#"
   xmlns:rdf="http://www.w3.org/1999/02/22-rdf-syntax-ns#"
   xmlns:svg="http://www.w3.org/2000/svg"
   xmlns="http://www.w3.org/2000/svg"
   xmlns:sodipodi="http://sodipodi.sourceforge.net/DTD/sodipodi-0.dtd"
   xmlns:inkscape="http://www.inkscape.org/namespaces/inkscape"
   id="visual"
   viewBox="0 0 900 81.896011"
   width="900"
   height="81.896011"
   version="1.1"
   sodipodi:docname="layered-waves-haikei.svg"
   inkscape:version="0.92.4 (5da689c313, 2019-01-14)">
  <metadata
     id="metadata3733">
    <rdf:RDF>
      <cc:Work
         rdf:about="">
        <dc:format>image/svg+xml</dc:format>
        <dc:type
           rdf:resource="http://purl.org/dc/dcmitype/StillImage" />
      </cc:Work>
    </rdf:RDF>
  </metadata>
  <defs
     id="defs3731" />
  <sodipodi:namedview
     pagecolor="#ffffff"
     bordercolor="#666666"
     borderopacity="1"
     objecttolerance="10"
     gridtolerance="10"
     guidetolerance="10"
     inkscape:pageopacity="0"
     inkscape:pageshadow="2"
     inkscape:window-width="1920"
     inkscape:window-height="1009"
     id="namedview3729"
     showgrid="false"
     inkscape:zoom="1.4"
     inkscape:cx="422.14286"
     inkscape:cy="129.57143"
     inkscape:window-x="-8"
     inkscape:window-y="1072"
     inkscape:window-maximized="1"
     inkscape:current-layer="visual" />
  <g
     id="g4553"
     transform="translate(0,-519.10399)">
    <path
       style="fill:#ffffff;fill-opacity:0.50753766"
       id="path3724"
       d="m 0,522 30,7.8 c 30,7.9 90,23.5 150,22.9 60,-0.7 120,-17.7 180,-26.4 60,-8.6 120,-9 180,-3.8 60,5.2 120,15.8 180,17.5 60,1.7 120,-5.7 150,-9.3 l 30,-3.7 v 74 h -30 c -30,0 -90,0 -150,0 -60,0 -120,0 -180,0 -60,0 -120,0 -180,0 -60,0 -120,0 -180,0 -60,0 -120,0 -150,0 H 0 Z"
       inkscape:connector-curvature="0" />
    <path
       id="path3726"
       d="m 0,581 30,-4 c 30,-4 90,-12 150,-18.2 60,-6.1 120,-10.5 180,-10.3 60,0.2 120,4.8 180,9.2 60,4.3 120,8.3 180,9.3 60,1 120,-1 150,-2 l 30,-1 v 37 h -30 c -30,0 -90,0 -150,0 -60,0 -120,0 -180,0 -60,0 -120,0 -180,0 -60,0 -120,0 -180,0 -60,0 -120,0 -150,0 H 0 Z"
       inkscape:connector-curvature="0"
       style="fill:#ffffff" />
  </g>
</svg>
